<?xml version="1.0" encoding="utf-8"?>
<!-- Generator: Adobe Illustrator 22.1.0, SVG Export Plug-In . SVG Version: 6.00 Build 0)  -->
<svg version="1.1" id="Capa_1" xmlns="http://www.w3.org/2000/svg" xmlns:xlink="http://www.w3.org/1999/xlink" x="0px" y="0px"
	 viewBox="0 0 512 512" style="enable-background:new 0 0 512 512;" xml:space="preserve">
<style type="text/css">
	.st0{fill:#424C59;}
	.st1{fill:#FCC63D;}
	.st2{fill:#FFFFFF;}
	.st3{fill:#D8A32E;}
</style>
<path class="st0" d="M73.4,333.6c6.3,14.9,14.5,28.9,24.1,41.6c4,5.4,5.2,12.4,2.9,18.7l-14.6,40.6c-3.2,9,0.4,19.1,8.7,23.9
	l66.9,38.7c8.3,4.8,18.8,3,25-4.4l27.8-32.9c4.3-5.1,10.9-7.7,17.6-6.9c7.9,1,15.9,1.5,24.1,1.5c8.2,0,16.2-0.5,24.1-1.5
	c6.7-0.8,13.3,1.7,17.6,6.9l27.8,32.9c6.2,7.3,16.7,9.2,25,4.4l66.9-38.7c8.3-4.8,12-14.8,8.7-23.9l-14.6-40.6
	c-2.3-6.3-1.2-13.3,2.9-18.7c9.6-12.8,17.7-26.7,24.1-41.6c2.6-6.2,8.1-10.6,14.7-11.8l42.4-7.6c9.4-1.7,16.3-9.9,16.3-19.5v-77.3
	c0-9.6-6.9-17.8-16.3-19.5l-42.4-7.6c-6.6-1.2-12.1-5.6-14.7-11.8c-6.3-14.9-14.5-28.9-24.1-41.7c-4-5.4-5.2-12.4-2.9-18.7
	l14.6-40.6c3.2-9-0.4-19.1-8.7-23.9L350.5,15c-8.3-4.8-18.8-3-25,4.4l-27.8,32.9c-4.3,5.1-10.9,7.7-17.6,6.9
	c-7.9-1-15.9-1.5-24.1-1.5c-8.1,0-16.2,0.5-24.1,1.5c-6.7,0.8-13.3-1.7-17.6-6.9l-27.8-32.9c-6.2-7.3-16.7-9.2-25-4.4L94.5,53.6
	c-8.3,4.8-12,14.8-8.7,23.9l14.6,40.6c2.3,6.3,1.2,13.3-2.9,18.7c-9.6,12.8-17.7,26.7-24.1,41.7c-2.6,6.2-8.1,10.6-14.7,11.8
	l-42.4,7.6C6.9,199.6,0,207.8,0,217.3v77.3c0,9.6,6.9,17.8,16.3,19.5l42.4,7.6C65.3,323,70.8,327.4,73.4,333.6z"/>
<path class="st1" d="M413,256c0,86.7-70.3,157-157,157c-6.2,0-12.3-0.4-18.3-1.1C159.6,402.9,99,336.5,99,256
	c0-80.5,60.6-146.9,138.7-156c6-0.7,12.1-1.1,18.3-1.1C342.7,99,413,169.3,413,256z"/>
<path class="st2" d="M383.5,256c0,70.4-57.1,127.5-127.5,127.5c-5,0-10-0.3-14.9-0.9c-63.4-7.4-112.6-61.3-112.6-126.7
	c0-65.4,49.2-119.3,112.6-126.7c4.9-0.6,9.9-0.9,14.9-0.9C326.4,128.5,383.5,185.6,383.5,256z"/>
<path class="st2" d="M353.7,256c0,65.4-49.2,119.3-112.6,126.7c-63.4-7.4-112.6-61.3-112.6-126.7c0-65.4,49.2-119.3,112.6-126.7
	C304.5,136.7,353.7,190.6,353.7,256z"/>
<path class="st3" d="M256,391.4c-5.3,0-10.6-0.3-15.8-0.9C172,382.5,120.6,324.7,120.6,256S172,129.5,240.2,121.5
	c5.2-0.6,10.5-0.9,15.8-0.9c74.6,0,135.4,60.7,135.4,135.4S330.6,391.4,256,391.4z M256,136.3c-4.7,0-9.4,0.3-14,0.8
	c-60.3,7-105.7,58.1-105.7,118.9S181.7,367.9,242,374.9c4.6,0.5,9.3,0.8,14,0.8c66,0,119.7-53.7,119.7-119.7S322,136.3,256,136.3z"
	/>
<ellipse transform="matrix(8.248059e-02 -0.9966 0.9966 8.248059e-02 -20.2418 490.0118)" class="st1" cx="256" cy="256" rx="24" ry="24"/>
<path class="st1" d="M208.5,311.3c-2,0-4-0.8-5.5-2.3c-2.1-2.1-4-4.3-5.8-6.6c-23.6-29.8-21.1-72.6,5.8-99.5
	c26.9-26.9,69.7-29.4,99.5-5.8c2.3,1.8,4.5,3.7,6.5,5.8c29.2,29.2,29.2,76.8,0,106.1c-3.1,3.1-8,3.1-11.1,0c-3.1-3.1-3.1-8,0-11.1
	c23.1-23.1,23.1-60.8,0-83.9c-1.7-1.7-3.4-3.2-5.2-4.6c-23.6-18.7-57.4-16.7-78.7,4.6s-23.3,55.1-4.6,78.7c1.4,1.8,3,3.5,4.6,5.2
	c3.1,3.1,3.1,8,0,11.1C212.5,310.6,210.5,311.3,208.5,311.3z"/>
<g>
	<path class="st0" d="M256,287.8c-8.1,0-16.3-3.1-22.5-9.3c-12.4-12.4-12.4-32.6,0-45c12.4-12.4,32.6-12.4,45,0s12.4,32.6,0,45l0,0
		C272.3,284.7,264.1,287.8,256,287.8z M273,273L273,273L273,273z M256,239.9c-4.1,0-8.3,1.6-11.4,4.7c-6.3,6.3-6.3,16.5,0,22.8
		c6.3,6.3,16.5,6.3,22.8,0c6.3-6.3,6.3-16.5,0-22.8C264.3,241.4,260.1,239.9,256,239.9z"/>
	<path class="st0" d="M273,246.9c-2,0-4-0.8-5.5-2.3c-3.1-3.1-3.1-8,0-11.1l39.2-39.2c3.1-3.1,8-3.1,11.1,0c3.1,3.1,3.1,8,0,11.1
		l-39.2,39.2C277,246.1,275,246.9,273,246.9z"/>
</g>
</svg>
