<?xml version="1.0" encoding="utf-8"?>
<!-- Generator: Adobe Illustrator 22.1.0, SVG Export Plug-In . SVG Version: 6.00 Build 0)  -->
<svg version="1.1" id="vector" xmlns="http://www.w3.org/2000/svg" xmlns:xlink="http://www.w3.org/1999/xlink" x="0px" y="0px"
	 viewBox="0 0 48 48" style="enable-background:new 0 0 48 48;" xml:space="preserve">
<style type="text/css">
	.st0{fill:#DBDBDB;}
	.st1{fill:#4371D1;}
	.st2{fill:#E33E2B;}
	.st3{fill:#2CA24C;}
	.st4{fill:#F5B500;}
	.st5{fill:#FFFFFF;}
	.st6{fill:#E8E8E8;}
</style>
<g>
	<path class="st0" d="M17.9,5.8c-0.1,0.1-0.1,0.2-0.2,0.3C17.8,6,17.9,5.9,17.9,5.8z"/>
	<path class="st0" d="M18.1,5.5c-0.1,0.1-0.1,0.2-0.2,0.3C18,5.7,18.1,5.6,18.1,5.5z"/>
	<path class="st0" d="M13.6,24c0-7.2,1.6-13.7,4.1-17.9C15.2,10.3,13.6,16.8,13.6,24c0,5.3,1,11.9,3,19.8c0.2,0.6,0.3,1.2,0.5,1.8
		C9.9,43.2,4.3,37.2,2.3,29.8c-0.4-1.9-0.7-3.6-0.7-5.2c0-0.2,0-0.3,0-0.5c0-12.4,10-22.6,22.5-22.7c0.1,0,0.2,0,0.3,0h0v0
		c12.5,0,22.7,10.2,22.7,22.7c0,0,0,0,0,0c0-12.6-10.2-22.8-22.8-22.8S1.5,11.4,1.5,24c0,10.1,6.5,18.6,15.6,21.6
		c-1.9-7-3-13-3.4-18C13.7,26.3,13.6,25.1,13.6,24z"/>
	<path class="st0" d="M18.4,5.1C18.4,5.1,18.4,5.1,18.4,5.1C18.4,5.1,18.4,5.1,18.4,5.1z"/>
	<path class="st0" d="M32,43.8c-0.1,0.3-0.2,0.6-0.2,0.9C31.9,44.4,31.9,44.1,32,43.8z"/>
	<path class="st0" d="M18.3,5.3c0,0-0.1,0.1-0.1,0.1C18.2,5.3,18.3,5.3,18.3,5.3z"/>
	<path class="st0" d="M29,3.5c-1.4-1.4-3-2.2-4.6-2.2v0C26,1.3,27.6,2.1,29,3.5z"/>
	<path class="st0" d="M16.7,43.8c-2-7.9-3-14.5-3-19.7c0-9,2.5-16.8,6.1-20.5c1.4-1.4,3-2.2,4.6-2.2v45.5c0,0,0,0,0,0V1.3v0
		c0,0,0,0,0,0c-0.1,0-0.2,0-0.3,0c0.1,0,0.2,0,0.3,0v0c-1.7,0-3.2,0.8-4.6,2.2c-0.4,0.5-0.9,1-1.3,1.6c0,0,0,0,0,0
		c0,0.1-0.1,0.1-0.1,0.2c0,0-0.1,0.1-0.1,0.1c0,0-0.1,0.1-0.1,0.1c-0.1,0.1-0.1,0.2-0.2,0.3c0,0,0,0,0,0c-0.1,0.1-0.1,0.2-0.2,0.3
		c0,0,0,0,0,0c-2.5,4.2-4.1,10.6-4.1,17.9c0,1.1,0.1,2.3,0.1,3.6c0.4,5,1.5,11.1,3.4,18c0,0,0,0,0,0C17,45,16.8,44.4,16.7,43.8z"/>
	<polygon class="st0" points="24.3,1.3 24.3,1.3 24.3,1.3 	"/>
	<path class="st0" d="M47.1,24.5c0,1.6-0.3,3.4-0.7,5.2C46.8,28.1,47,26.3,47.1,24.5z"/>
	<path class="st1" d="M47.1,24.5c0-0.2,0-0.3,0-0.5c0,0,0,0,0,0C47.1,24.2,47.1,24.3,47.1,24.5z"/>
	<path class="st1" d="M24.3,1.3L24.3,1.3c1.7,0,3.2,0.8,4.6,2.2C32.6,7.2,35.1,15,35.1,24c0,5.2-1,11.9-3,19.7
		c-0.1,0.3-0.2,0.6-0.2,0.9c-0.1,0.3-0.2,0.6-0.2,0.9c7.2-2.4,12.9-8.4,14.8-15.9c0.4-1.9,0.7-3.6,0.7-5.2c0-0.2,0-0.3,0-0.5
		C47.1,11.5,36.9,1.3,24.3,1.3z"/>
	<polygon class="st1" points="24.3,1.3 24.3,1.3 24.3,1.3 	"/>
	<path class="st2" d="M24.3,46.8c2.5,0,4.9-0.4,7.2-1.2c0.2-0.6,0.3-1.2,0.5-1.8c2-7.9,3-14.5,3-19.7c0-9-2.5-16.8-6.1-20.5
		c-1.4-1.4-3-2.2-4.6-2.2V46.8z"/>
	<path class="st3" d="M1.6,24c0,0.2,0,0.3,0,0.5c0,1.6,0.3,3.4,0.7,5.2c1.9,7.5,7.6,13.4,14.8,15.9c-0.2-0.6-0.3-1.2-0.5-1.8
		c-2-7.9-3-14.5-3-19.7c0-7.3,1.6-13.7,4.1-17.9c0,0,0,0,0,0c0.1-0.1,0.1-0.2,0.2-0.3c0,0,0,0,0,0c0.1-0.1,0.1-0.2,0.2-0.3
		c0,0,0.1-0.1,0.1-0.1c0,0,0.1-0.1,0.1-0.1c0-0.1,0.1-0.1,0.1-0.2c0,0,0,0,0,0C20,2.8,22,1.4,24,1.3C11.6,1.4,1.6,11.6,1.6,24z"/>
	<path class="st3" d="M18.2,5.4c0,0-0.1,0.1-0.1,0.1C18.1,5.5,18.2,5.4,18.2,5.4z"/>
	<path class="st3" d="M17.9,5.8C17.9,5.8,17.9,5.8,17.9,5.8C17.9,5.8,17.9,5.8,17.9,5.8z"/>
	<path class="st3" d="M18.4,5.1c0,0.1-0.1,0.1-0.1,0.2C18.3,5.2,18.4,5.1,18.4,5.1z"/>
	<path class="st3" d="M17.7,6.1C17.7,6.1,17.7,6.1,17.7,6.1C17.7,6.1,17.7,6.1,17.7,6.1z"/>
	<path class="st3" d="M18.4,5.1c0.4-0.6,0.8-1.1,1.3-1.6c1.4-1.4,3-2.2,4.6-2.2v0c-0.1,0-0.2,0-0.3,0C22,1.4,20,2.8,18.4,5.1z"/>
	<path class="st4" d="M24.3,46.8V1.3c-1.7,0-3.2,0.8-4.6,2.2C16.1,7.2,13.6,15,13.6,24c0,5.2,1,11.9,3,19.7c0.2,0.6,0.3,1.2,0.5,1.9
		C19.4,46.4,21.8,46.8,24.3,46.8C24.3,46.8,24.3,46.8,24.3,46.8z"/>
	<path class="st2" d="M32,43.8c-0.2,0.6-0.3,1.2-0.5,1.8c0,0,0,0,0,0c0.1-0.3,0.2-0.6,0.2-0.9C31.9,44.4,31.9,44.1,32,43.8
		c2-7.9,3.1-14.5,3.1-19.7c0-9-2.5-16.8-6.1-20.5C32.6,7.2,35.1,15,35.1,24C35.1,29.3,34,35.9,32,43.8z"/>
	<path class="st2" d="M31.5,45.6L31.5,45.6c0.1-0.3,0.2-0.6,0.2-0.9C31.7,45,31.6,45.3,31.5,45.6z"/>
</g>
<g>
	<path class="st0" d="M16.5,8.4l2,3.5c0.2,0.3,0.1,0.8-0.3,0.9l0,0c-0.3,0.2-0.8,0.1-0.9-0.3l-2-3.5c-0.2-0.3-0.1-0.8,0.3-0.9l0,0
		C15.9,8,16.3,8.1,16.5,8.4z"/>
	<path class="st0" d="M33.3,8.9l-2,3.5c-0.2,0.3-0.6,0.4-0.9,0.3l0,0c-0.3-0.2-0.4-0.6-0.3-0.9l2-3.5C32.3,7.9,32.7,7.8,33,8l0,0
		C33.4,8.2,33.5,8.6,33.3,8.9z"/>
	<path class="st5" d="M24.3,40.1L24.3,40.1c-6.1,0-11-4.9-11-11v-9.3c0-6.1,4.9-11,11-11h0c6.1,0,11,4.9,11,11v9.3
		C35.3,35.2,30.4,40.1,24.3,40.1z"/>
	<path class="st5" d="M9,31.2L9,31.2c-1,0-1.8-0.8-1.8-1.8v-9.9c0-1,0.8-1.8,1.8-1.8h0c1,0,1.8,0.8,1.8,1.8v9.9
		C10.8,30.4,10,31.2,9,31.2z"/>
	<path class="st5" d="M39.6,31.2L39.6,31.2c-1,0-1.8-0.8-1.8-1.8v-9.9c0-1,0.8-1.8,1.8-1.8h0c1,0,1.8,0.8,1.8,1.8v9.9
		C41.4,30.4,40.6,31.2,39.6,31.2z"/>
	<circle class="st6" cx="19.7" cy="18.2" r="1.3"/>
	<ellipse class="st6" cx="28.9" cy="18.2" rx="1.3" ry="1.3"/>
	<rect x="13.3" y="24.8" class="st0" width="22" height="0.8"/>
</g>
</svg>
