<?xml version="1.0" encoding="utf-8"?>
<!-- Generator: Adobe Illustrator 22.1.0, SVG Export Plug-In . SVG Version: 6.00 Build 0)  -->
<svg version="1.1" id="Layer_1" xmlns="http://www.w3.org/2000/svg" xmlns:xlink="http://www.w3.org/1999/xlink" x="0px" y="0px"
	 viewBox="0 0 504.1 504.1" style="enable-background:new 0 0 504.1 504.1;" xml:space="preserve">
<style type="text/css">
	.st0{fill:none;stroke:#444D5B;stroke-width:22;stroke-linecap:round;stroke-miterlimit:10;}
	.st1{fill:none;stroke:#444D5B;stroke-width:22;stroke-linecap:round;stroke-linejoin:round;stroke-miterlimit:10;}
	.st2{fill:#F24E4E;}
	.st3{fill:#ED516F;}
	.st4{fill:#EF5085;}
	.st5{fill:#F24E9D;}
	.st6{fill:#F24EC7;}
	.st7{fill:#FFFFFF;}
	.st8{fill:#EDEEF0;}
</style>
<g>
	<path class="st0" d="M378.8,47.1v303.6c-0.3,43.9-1.1,68-28.7,99c-14.2,16-45.3,38.2-90.6,39.1c-34.6,0.7-65.8-11.3-84.9-28.8
		c-28.8-26.6-44.5-64.4-44.5-103.6v-47.1c0-7.2-1.6-14.3-4.9-20.7c-4.4-8.6-9.6-27.1-9.6-27.1"/>
	<polyline class="st1" points="334.1,89.7 378.5,15.1 422.9,91.5 	"/>
	<g>
		<path class="st2" d="M336.1,204.3c0-10.3-8.4-18.7-18.7-18.7h0c-10.3,0-18.7,8.4-18.7,18.7v16h37.3V204.3z"/>
		<path class="st2" d="M210,204.3c0-10.3-8.4-18.7-18.7-18.7h0c-10.3,0-18.7,8.4-18.7,18.7v16H210V204.3z"/>
		<path class="st2" d="M273.1,181.2c0-10.3-8.4-18.7-18.7-18.7h0c-10.3,0-18.7,8.4-18.7,18.7v39.1h37.3V181.2z"/>
		<polygon class="st3" points="298.8,225.4 298.8,283.8 336.1,283.8 336.1,220.5 298.8,220.5 		"/>
		<polygon class="st3" points="210,225.4 210,220.5 172.7,220.5 172.7,283.8 210,283.8 		"/>
		<polygon class="st3" points="235.7,283.8 273.1,283.8 273.1,225.4 273.1,220.5 235.7,220.5 235.7,225.4 		"/>
		<rect x="235.7" y="220.3" class="st3" width="37.3" height="0.2"/>
		<rect x="172.7" y="220.3" class="st3" width="37.3" height="0.2"/>
		<rect x="298.8" y="220.3" class="st3" width="37.3" height="0.2"/>
		<path class="st4" d="M298.8,292.4v1.6c0,0-0.1,0.1-0.1,0.1c-0.8,5.8-5.8,10.3-11.9,10.3h-1.8c-6,0-11-4.5-11.9-10.3
			c0,0-0.1-0.1-0.1-0.1v-1.6v-8.6h-37.3v8.6v0.8c0,0,0,0,0,0c-0.4,6.2-5.6,11.2-12,11.2H222c-6.1,0-11.1-4.6-11.9-10.4
			c0,0-0.1-0.1-0.1-0.1v-1.5v-8.6h-37.3v7v56.5h163.4v-56.5v-7h-37.3V292.4z"/>
		<path class="st5" d="M172.7,349.3v17.5c0,16.2,4.8,31.2,12.9,43.9h137.1c8.5-12.9,13.4-28.4,13.4-45.1v-16.3v-2H172.7V349.3z"/>
		<path class="st6" d="M253.8,447.8L253.8,447.8c28.7,0,54-14.7,68.7-37H185.7C200.2,433.1,225.3,447.8,253.8,447.8z"/>
		<path class="st6" d="M185.7,410.8h136.8c0-0.1,0.1-0.1,0.1-0.2H185.6C185.6,410.7,185.7,410.7,185.7,410.8z"/>
	</g>
</g>
<g>
	<g>
		<circle class="st7" cx="248.3" cy="339.1" r="16.5"/>
		<circle class="st7" cx="230.6" cy="394.9" r="11.6"/>
	</g>
	<circle class="st8" cx="286.7" cy="374.1" r="11.6"/>
</g>
</svg>
